<mxfile host="app.diagrams.net" modified="2022-02-15T17:37:28.468Z" agent="5.0 (Windows NT 10.0; Win64; x64) AppleWebKit/537.36 (KHTML, like Gecko) Chrome/98.0.4758.80 Safari/537.36 Edg/98.0.1108.50" etag="7e9SKiJ4qeSpeZaubBF5" version="16.5.6" type="github">
  <diagram id="lQI30dlDuUCwMHOIcv5Y" name="Page-1">
    <mxGraphModel dx="1422" dy="794" grid="1" gridSize="10" guides="1" tooltips="1" connect="1" arrows="1" fold="1" page="1" pageScale="1" pageWidth="827" pageHeight="1169" math="0" shadow="0">
      <root>
        <mxCell id="0" />
        <mxCell id="1" parent="0" />
        <mxCell id="56wonEEUg3qWh-mRy6oV-4" style="edgeStyle=orthogonalEdgeStyle;rounded=0;orthogonalLoop=1;jettySize=auto;html=1;exitX=0.5;exitY=1;exitDx=0;exitDy=0;entryX=0.458;entryY=-0.02;entryDx=0;entryDy=0;entryPerimeter=0;" edge="1" parent="1" source="nBbL4wEP9yCzlgiuOXEW-1" target="nBbL4wEP9yCzlgiuOXEW-3">
          <mxGeometry relative="1" as="geometry" />
        </mxCell>
        <mxCell id="nBbL4wEP9yCzlgiuOXEW-1" value="Начало" style="ellipse;whiteSpace=wrap;html=1;" parent="1" vertex="1">
          <mxGeometry x="280" y="40" width="160" height="40" as="geometry" />
        </mxCell>
        <mxCell id="nBbL4wEP9yCzlgiuOXEW-2" value="Конец" style="ellipse;whiteSpace=wrap;html=1;" parent="1" vertex="1">
          <mxGeometry x="280" y="470" width="160" height="40" as="geometry" />
        </mxCell>
        <mxCell id="56wonEEUg3qWh-mRy6oV-7" style="edgeStyle=orthogonalEdgeStyle;rounded=0;orthogonalLoop=1;jettySize=auto;html=1;exitX=0.5;exitY=1;exitDx=0;exitDy=0;entryX=0.5;entryY=0;entryDx=0;entryDy=0;" edge="1" parent="1" source="nBbL4wEP9yCzlgiuOXEW-3" target="56wonEEUg3qWh-mRy6oV-1">
          <mxGeometry relative="1" as="geometry" />
        </mxCell>
        <mxCell id="nBbL4wEP9yCzlgiuOXEW-3" value="&lt;div&gt;Создать список пользователей&lt;/div&gt;&lt;div&gt;List&amp;lt;User&amp;gt; users = new List&amp;lt;User&amp;gt;();&lt;/div&gt;" style="rounded=0;whiteSpace=wrap;html=1;" parent="1" vertex="1">
          <mxGeometry x="250" y="120" width="240" height="50" as="geometry" />
        </mxCell>
        <mxCell id="56wonEEUg3qWh-mRy6oV-1" value="&lt;div&gt;Заполнить список&lt;/div&gt;&lt;div&gt;users.Add();&lt;/div&gt;" style="rounded=0;whiteSpace=wrap;html=1;" vertex="1" parent="1">
          <mxGeometry x="240" y="200" width="240" height="60" as="geometry" />
        </mxCell>
        <mxCell id="56wonEEUg3qWh-mRy6oV-3" value="" style="endArrow=classic;html=1;rounded=0;" edge="1" parent="1">
          <mxGeometry width="50" height="50" relative="1" as="geometry">
            <mxPoint x="390" y="410" as="sourcePoint" />
            <mxPoint x="440" y="360" as="targetPoint" />
          </mxGeometry>
        </mxCell>
        <mxCell id="56wonEEUg3qWh-mRy6oV-5" value="" style="endArrow=classic;html=1;rounded=0;" edge="1" parent="1">
          <mxGeometry width="50" height="50" relative="1" as="geometry">
            <mxPoint x="390" y="410" as="sourcePoint" />
            <mxPoint x="440" y="360" as="targetPoint" />
          </mxGeometry>
        </mxCell>
        <mxCell id="56wonEEUg3qWh-mRy6oV-6" value="" style="endArrow=classic;html=1;rounded=0;" edge="1" parent="1">
          <mxGeometry width="50" height="50" relative="1" as="geometry">
            <mxPoint x="390" y="410" as="sourcePoint" />
            <mxPoint x="440" y="360" as="targetPoint" />
          </mxGeometry>
        </mxCell>
      </root>
    </mxGraphModel>
  </diagram>
</mxfile>
